# xmcd CD database file
#
# Track frame offsets:
#	150
#	21557
#	36652
#	55140
#	66822
#	80005
#	90432
#	108415
#	131585
#	149392
#	170772
#	187105
#
# Disc length: 2679 seconds
#
# Revision: 0
# Processed by: cddbd v1.5PL3 Copyright (c) Steve Scherf et al.
# Submitted via: CDex 1.51
#
DISCID=b30a750c
DTITLE=Stephen Jacob - Flight of Hand
DYEAR=1900
DGENRE=New Age
TTITLE0=nancita
TTITLE1=baroke
TTITLE2=softime
TTITLE3=rain butterfly
TTITLE4=grief
TTITLE5=dance de nance
TTITLE6=autumnal
TTITLE7=ode to ed
TTITLE8=home
TTITLE9=ruskola
TTITLE10=flight of hand
TTITLE11=joy
EXTD=
EXTT0=
EXTT1=
EXTT2=
EXTT3=
EXTT4=
EXTT5=
EXTT6=
EXTT7=
EXTT8=
EXTT9=
EXTT10=
EXTT11=
PLAYORDER=
